<svg width="64" height="64" viewBox="0 0 64 64" fill="none" xmlns="http://www.w3.org/2000/svg">
<path d="M34.7938 25.6121C36.2435 24.404 37.3006 23.1656 38.1765 21.6253C41.5592 15.8565 40.8948 8.97027 35.5488 0.271826C34.3709 0.0906088 33.193 0 31.9849 0C24.857 0 18.2728 2.38603 12.8966 6.37282C21.5045 7.2487 28.1793 11.2053 32.0755 17.9707C33.495 20.4172 34.3407 22.8636 34.7938 25.6121ZM44.0661 32.3473C50.9523 32.3473 56.7211 28.0585 61.1005 19.1185C57.9594 11.7791 51.9792 5.79896 44.5493 2.59745C48.1737 10.4804 48.1133 18.3332 44.1869 25.0382C42.6767 27.6055 40.8948 29.5687 38.7201 31.3506C40.4115 31.9849 42.1029 32.3473 44.0661 32.3473ZM0.21142 35.6999C5.28551 28.6928 12.0812 24.857 19.8735 24.857C22.7126 24.857 25.2798 25.3705 27.8773 26.337C27.5753 24.4946 27.0014 22.9542 26.0953 21.3837C22.7126 15.4941 16.1888 12.6248 6.28221 13.1987C2.35583 18.454 0 24.9778 0 32.0151C0 33.2534 0.0906088 34.4917 0.21142 35.6999ZM57.5668 50.9523C61.5838 45.6668 64 39.0826 64 32.0151C64 30.7466 63.9396 29.5687 63.7886 28.3605C58.7145 35.3978 51.8886 39.2336 44.0661 39.2336C41.1364 39.2336 38.5087 38.6899 35.8811 37.6933C36.2133 39.4148 36.757 41.0156 37.6933 42.6465C41.1062 48.5361 47.6602 51.4054 57.5668 50.9523ZM19.1789 61.2817C15.5847 53.3988 15.6753 45.546 19.6017 38.8108C21.0514 36.3341 22.773 34.3407 24.8872 32.589C23.1958 32.0151 21.6253 31.7735 19.8735 31.7735C13.1685 31.7735 7.52053 35.8509 2.80887 44.942C6.01038 52.2209 11.9 58.0802 19.1789 61.2817ZM32.0151 64C39.0826 64 45.6668 61.6744 50.9825 57.7178C42.3445 56.8419 35.6092 52.8249 31.7131 46.0595C30.2633 43.5224 29.4176 41.0156 28.9646 38.2369C27.6357 39.3846 26.5484 40.6229 25.6121 42.2237C22.1085 48.1737 22.9542 55.6338 28.2699 63.698C29.4781 63.9094 30.7164 64 32.0151 64Z" fill="#050038"/>
<path d="M34.7938 25.6121C36.2435 24.404 37.3006 23.1656 38.1765 21.6253C41.5592 15.8565 40.8948 8.97027 35.5488 0.271826C34.3709 0.0906088 33.193 0 31.9849 0C24.857 0 18.2728 2.38603 12.8966 6.37282C21.5045 7.2487 28.1793 11.2053 32.0755 17.9707C33.495 20.4172 34.3407 22.8636 34.7938 25.6121ZM44.0661 32.3473C50.9523 32.3473 56.7211 28.0585 61.1005 19.1185C57.9594 11.7791 51.9792 5.79896 44.5493 2.59745C48.1737 10.4804 48.1133 18.3332 44.1869 25.0382C42.6767 27.6055 40.8948 29.5687 38.7201 31.3506C40.4115 31.9849 42.1029 32.3473 44.0661 32.3473ZM0.21142 35.6999C5.28551 28.6928 12.0812 24.857 19.8735 24.857C22.7126 24.857 25.2798 25.3705 27.8773 26.337C27.5753 24.4946 27.0014 22.9542 26.0953 21.3837C22.7126 15.4941 16.1888 12.6248 6.28221 13.1987C2.35583 18.454 0 24.9778 0 32.0151C0 33.2534 0.0906088 34.4917 0.21142 35.6999ZM57.5668 50.9523C61.5838 45.6668 64 39.0826 64 32.0151C64 30.7466 63.9396 29.5687 63.7886 28.3605C58.7145 35.3978 51.8886 39.2336 44.0661 39.2336C41.1364 39.2336 38.5087 38.6899 35.8811 37.6933C36.2133 39.4148 36.757 41.0156 37.6933 42.6465C41.1062 48.5361 47.6602 51.4054 57.5668 50.9523ZM19.1789 61.2817C15.5847 53.3988 15.6753 45.546 19.6017 38.8108C21.0514 36.3341 22.773 34.3407 24.8872 32.589C23.1958 32.0151 21.6253 31.7735 19.8735 31.7735C13.1685 31.7735 7.52053 35.8509 2.80887 44.942C6.01038 52.2209 11.9 58.0802 19.1789 61.2817ZM32.0151 64C39.0826 64 45.6668 61.6744 50.9825 57.7178C42.3445 56.8419 35.6092 52.8249 31.7131 46.0595C30.2633 43.5224 29.4176 41.0156 28.9646 38.2369C27.6357 39.3846 26.5484 40.6229 25.6121 42.2237C22.1085 48.1737 22.9542 55.6338 28.2699 63.698C29.4781 63.9094 30.7164 64 32.0151 64Z" fill="url(#paint0_radial)"/>
<defs>
<radialGradient id="paint0_radial" cx="0" cy="0" r="1" gradientUnits="userSpaceOnUse" gradientTransform="rotate(44.9999) scale(90.5227 90.5225)">
<stop stop-color="#FFD02F"/>
<stop offset="1" stop-color="#FFAF4C"/>
</radialGradient>
</defs>
</svg>
