<svg width="64" height="64" viewBox="0 0 64 64" fill="none" xmlns="http://www.w3.org/2000/svg">
<path fill-rule="evenodd" clip-rule="evenodd" d="M4.68629 4.68629C0 9.37258 0 16.9151 0 32C0 47.0849 0 54.6274 4.68629 59.3137C9.37258 64 16.9151 64 32 64C47.0849 64 54.6274 64 59.3137 59.3137C64 54.6274 64 47.0849 64 32C64 16.9151 64 9.37258 59.3137 4.68629C54.6274 0 47.0849 0 32 0C16.9151 0 9.37258 0 4.68629 4.68629ZM35.6673 25.84C35.1472 26.7546 34.5196 27.4899 33.6588 28.2072C33.3898 26.5753 32.8877 25.1227 32.0448 23.6701C29.7315 19.6531 25.7683 17.3039 20.6574 16.7839C23.8495 14.4167 27.7588 13 31.991 13C32.7084 13 33.4077 13.0538 34.1071 13.1614C37.2813 18.3261 37.6758 22.4148 35.6673 25.84ZM49.2784 24.3516C46.6782 29.6597 43.2529 32.2062 39.1642 32.2062C37.9986 32.2062 36.9943 31.991 35.9901 31.6144C37.2813 30.5564 38.3393 29.3908 39.236 27.8664C41.5672 23.8853 41.6031 19.2227 39.4512 14.5422C43.8627 16.4431 47.4134 19.9939 49.2784 24.3516ZM24.7999 27.7588C20.1732 27.7588 16.1383 30.0363 13.1255 34.1968C13.0538 33.4795 13 32.7442 13 32.009C13 27.8306 14.3988 23.9571 16.7301 20.8367C22.6121 20.496 26.4856 22.1996 28.4941 25.6966C29.0321 26.6291 29.3728 27.5437 29.5521 28.6376C28.0099 28.0637 26.4856 27.7588 24.7999 27.7588ZM51 32.009C51 36.2053 49.5654 40.1147 47.1803 43.2529C41.2983 43.5219 37.4068 41.8183 35.3804 38.3214C34.8244 37.353 34.5017 36.4025 34.3044 35.3804C35.8646 35.9722 37.4247 36.2949 39.1642 36.2949C43.8089 36.2949 47.8617 34.0175 50.8745 29.8391C50.9641 30.5564 51 31.2558 51 32.009ZM24.6385 36.0439C22.3072 40.0429 22.2534 44.7055 24.3874 49.386C20.0656 47.4851 16.5687 44.0061 14.6678 39.6843C17.4653 34.2865 20.8188 31.8655 24.7999 31.8655C25.84 31.8655 26.7725 32.009 27.7768 32.3497C26.5215 33.3898 25.4993 34.5734 24.6385 36.0439ZM43.2709 47.2699C40.1147 49.6192 36.2053 51 32.009 51C31.2378 51 30.5026 50.9462 29.7853 50.8207C26.6291 46.0326 26.1269 41.6031 28.2072 38.0703C28.7631 37.1199 29.4087 36.3846 30.1977 35.7032C30.4667 37.353 30.9689 38.8414 31.8296 40.3478C34.143 44.3648 38.142 46.7499 43.2709 47.2699Z" fill="#C4C4C4"/>
<path fill-rule="evenodd" clip-rule="evenodd" d="M4.68629 4.68629C0 9.37258 0 16.9151 0 32C0 47.0849 0 54.6274 4.68629 59.3137C9.37258 64 16.9151 64 32 64C47.0849 64 54.6274 64 59.3137 59.3137C64 54.6274 64 47.0849 64 32C64 16.9151 64 9.37258 59.3137 4.68629C54.6274 0 47.0849 0 32 0C16.9151 0 9.37258 0 4.68629 4.68629ZM35.6673 25.84C35.1472 26.7546 34.5196 27.4899 33.6588 28.2072C33.3898 26.5753 32.8877 25.1227 32.0448 23.6701C29.7315 19.6531 25.7683 17.3039 20.6574 16.7839C23.8495 14.4167 27.7588 13 31.991 13C32.7084 13 33.4077 13.0538 34.1071 13.1614C37.2813 18.3261 37.6758 22.4148 35.6673 25.84ZM49.2784 24.3516C46.6782 29.6597 43.2529 32.2062 39.1642 32.2062C37.9986 32.2062 36.9943 31.991 35.9901 31.6144C37.2813 30.5564 38.3393 29.3908 39.236 27.8664C41.5672 23.8853 41.6031 19.2227 39.4512 14.5422C43.8627 16.4431 47.4134 19.9939 49.2784 24.3516ZM24.7999 27.7588C20.1732 27.7588 16.1383 30.0363 13.1255 34.1968C13.0538 33.4795 13 32.7442 13 32.009C13 27.8306 14.3988 23.9571 16.7301 20.8367C22.6121 20.496 26.4856 22.1996 28.4941 25.6966C29.0321 26.6291 29.3728 27.5437 29.5521 28.6376C28.0099 28.0637 26.4856 27.7588 24.7999 27.7588ZM51 32.009C51 36.2053 49.5654 40.1147 47.1803 43.2529C41.2983 43.5219 37.4068 41.8183 35.3804 38.3214C34.8244 37.353 34.5017 36.4025 34.3044 35.3804C35.8646 35.9722 37.4247 36.2949 39.1642 36.2949C43.8089 36.2949 47.8617 34.0175 50.8745 29.8391C50.9641 30.5564 51 31.2558 51 32.009ZM24.6385 36.0439C22.3072 40.0429 22.2534 44.7055 24.3874 49.386C20.0656 47.4851 16.5687 44.0061 14.6678 39.6843C17.4653 34.2865 20.8188 31.8655 24.7999 31.8655C25.84 31.8655 26.7725 32.009 27.7768 32.3497C26.5215 33.3898 25.4993 34.5734 24.6385 36.0439ZM43.2709 47.2699C40.1147 49.6192 36.2053 51 32.009 51C31.2378 51 30.5026 50.9462 29.7853 50.8207C26.6291 46.0326 26.1269 41.6031 28.2072 38.0703C28.7631 37.1199 29.4087 36.3846 30.1977 35.7032C30.4667 37.353 30.9689 38.8414 31.8296 40.3478C34.143 44.3648 38.142 46.7499 43.2709 47.2699Z" fill="url(#paint0_radial)"/>
<defs>
<radialGradient id="paint0_radial" cx="0" cy="0" r="1" gradientUnits="userSpaceOnUse" gradientTransform="rotate(44.9999) scale(90.5227 90.5225)">
<stop stop-color="#FFD02F"/>
<stop offset="1" stop-color="#FFAF4C"/>
</radialGradient>
</defs>
</svg>
