<svg width="48" height="48" viewBox="0 0 48 48" fill="none" xmlns="http://www.w3.org/2000/svg">
<path d="M12.2572 36H35.7299C38.5249 36 40 34.6094 40 31.9524V18.9157C40 16.2587 38.5249 14.8681 35.7299 14.8681H32.2879C31.2786 14.8681 30.9551 14.7067 30.3211 14.0735L29.2988 13.0181C28.626 12.3352 27.9402 12 26.6203 12H21.3021C19.9822 12 19.2964 12.3352 18.6235 13.0181L17.6013 14.0735C16.9802 14.6943 16.6438 14.8681 15.6345 14.8681H12.2572C9.46219 14.8681 8 16.2587 8 18.9157V31.9524C8 34.6094 9.46219 36 12.2572 36ZM19.4258 20.8029C18.9858 20.3063 19.1411 19.6358 19.8011 19.1516C20.888 18.3197 22.4149 17.8107 23.9935 17.8107C27.6425 17.8107 30.5152 20.1449 31.1492 23.5096H32.3655C33.0125 23.5096 33.1808 24.1055 32.8055 24.6022L30.7222 27.3709C30.3469 27.88 29.7 27.8551 29.3247 27.3709L27.2285 24.6022C26.8403 24.118 27.0214 23.5096 27.6684 23.5096H28.9624C28.3801 21.4609 26.4003 19.9462 23.9935 19.9462C22.8548 19.9462 21.9749 20.2814 21.095 20.9395C20.4998 21.3368 19.8787 21.312 19.4258 20.8029ZM15.1557 24.8132L17.226 22.0569C17.6142 21.5479 18.2483 21.5727 18.6235 22.0569L20.7327 24.8132C21.108 25.2975 20.9268 25.9058 20.2798 25.9058H19.0505C19.6328 27.9545 21.6126 29.4692 24.0194 29.4692C25.1581 29.4692 26.038 29.134 26.9179 28.4884C27.5131 28.0786 28.1472 28.1159 28.5871 28.6125C29.0271 29.1092 28.8848 29.8044 28.2119 30.2763C27.1249 31.1081 25.611 31.6048 24.0194 31.6048C20.3833 31.6048 17.4978 29.2706 16.8637 25.9058H15.5956C14.9486 25.9058 14.7804 25.3099 15.1557 24.8132Z" fill="white"/>
</svg>
